{"glyphs":{"\u0000":{"ha":0,"x_min":0,"x_max":0,"o":""},"\r":{"ha":347,"x_min":0,"x_max":0,"o":""}," ":{"ha":214,"x_min":0,"x_max":0,"o":""},"A":{"ha":639,"x_min":14,"x_max":625,"o":"m 510 154 q 514 156 510 154 q 521 165 518 158 q 524 184 524 171 q 515 221 524 197 l 465 360 l 147 360 l 99 221 q 90 184 90 197 q 94 165 90 171 q 101 156 97 158 q 106 154 106 154 l 106 147 l 14 147 l 14 154 q 19 156 14 154 q 33 165 25 158 q 50 184 40 171 q 68 221 60 197 l 290 846 l 276 882 l 333 882 l 332 881 l 571 221 q 589 184 579 197 q 606 165 599 171 q 619 156 614 158 q 625 154 625 154 l 625 147 l 510 147 l 510 154 m 458 379 l 306 803 l 154 379 l 458 379 z "},"B":{"ha":476,"x_min":14,"x_max":463,"o":"m 463 351 q 388 197 463 247 q 171 147 314 147 l 14 147 l 14 156 q 19 158 14 156 q 29 166 24 160 q 40 185 35 172 q 44 222 44 199 l 44 808 q 40 846 44 832 q 29 866 35 860 q 19 874 24 872 q 14 876 14 876 l 14 883 l 169 883 q 373 840 311 883 q 435 713 435 796 q 394 604 435 646 q 261 549 353 563 q 411 485 360 533 q 463 351 463 438 m 100 554 l 189 554 q 256 561 222 556 q 318 583 290 567 q 363 631 346 600 q 381 713 381 663 q 360 797 381 767 q 309 842 340 828 q 241 860 278 857 q 169 864 204 864 l 100 864 l 100 554 m 408 351 q 384 453 408 417 q 324 508 360 490 q 246 531 288 526 q 169 536 204 536 l 100 536 l 100 222 q 104 186 100 199 q 114 167 108 174 l 171 167 q 247 171 206 167 q 324 194 288 175 q 384 249 360 213 q 408 350 408 286 l 408 351 z "},"C":{"ha":510,"x_min":14,"x_max":496,"o":"m 343 164 q 402 174 376 164 q 445 197 428 185 q 473 222 463 210 q 488 239 483 235 l 496 239 l 485 185 q 417 157 453 167 q 343 147 381 147 q 217 176 276 147 q 112 256 157 206 q 40 372 67 306 q 14 515 14 439 q 40 658 14 592 q 112 775 67 725 q 217 854 157 825 q 343 883 276 883 q 417 874 381 883 q 485 847 453 864 l 496 792 l 488 792 q 473 808 483 796 q 445 833 463 821 q 402 856 428 846 q 343 867 376 867 q 233 838 283 867 q 147 759 183 808 q 90 647 111 710 q 69 515 69 583 q 90 384 69 447 q 147 272 111 321 q 233 194 183 224 q 343 164 283 164 z "},"D":{"ha":597,"x_min":14,"x_max":583,"o":"m 14 147 l 14 156 q 19 158 14 156 q 29 166 24 160 q 40 185 35 172 q 44 222 44 199 l 44 808 q 40 846 44 832 q 29 866 35 860 q 19 874 24 872 q 14 876 14 876 l 14 883 l 169 883 q 334 861 258 883 q 465 794 410 839 q 552 679 521 749 q 583 515 583 610 q 552 351 583 421 q 465 237 521 282 q 334 169 410 192 q 169 147 258 147 l 14 147 m 100 167 l 169 167 q 231 169 194 167 q 306 183 267 172 q 385 216 346 194 q 454 276 424 238 q 504 374 485 315 q 524 515 524 432 l 524 517 q 504 658 524 600 q 454 754 485 715 q 385 815 424 793 q 306 847 346 836 q 231 861 267 858 q 169 864 194 864 l 100 864 l 100 167 z "},"E":{"ha":444,"x_min":14,"x_max":431,"o":"m 14 147 l 14 156 q 17 156 15 156 q 19 158 18 157 q 22 160 21 158 q 37 177 29 164 q 44 222 44 190 l 44 808 q 37 853 44 840 q 22 872 29 867 q 14 876 14 878 l 14 883 l 404 883 l 431 794 l 413 794 q 381 842 397 819 q 336 864 365 864 l 126 864 q 108 858 115 864 q 100 839 100 851 l 100 513 l 181 513 q 257 518 229 513 q 288 524 285 524 l 288 482 q 257 488 285 482 q 181 493 229 493 l 100 493 l 100 193 q 108 173 100 179 q 126 167 115 167 l 336 167 q 381 189 365 167 q 413 236 397 211 l 431 236 l 404 147 l 14 147 z "},"F":{"ha":444,"x_min":14,"x_max":431,"o":"m 14 147 l 14 156 q 19 158 14 156 q 29 166 24 160 q 40 185 35 172 q 44 222 44 199 l 44 808 q 40 846 44 832 q 29 866 35 860 q 19 874 24 872 q 14 876 14 876 l 14 883 l 404 883 l 431 794 l 413 794 q 381 842 397 819 q 336 864 365 864 l 126 864 q 108 858 115 864 q 100 839 100 851 l 100 513 l 178 513 q 253 518 226 513 q 283 524 281 524 l 283 482 q 253 488 281 482 q 178 493 226 493 l 100 493 l 100 210 q 106 180 101 190 q 115 164 110 169 q 129 156 122 157 l 129 147 l 14 147 z "},"G":{"ha":649,"x_min":14,"x_max":635,"o":"m 635 525 l 635 506 q 610 365 633 431 q 547 251 588 300 q 451 175 507 203 q 331 147 396 147 q 206 176 264 147 q 106 256 149 206 q 38 372 63 306 q 14 515 14 439 q 40 658 14 592 q 112 775 67 725 q 217 854 157 825 q 343 883 276 883 q 417 874 381 883 q 485 847 453 864 l 496 792 l 488 792 q 473 808 483 796 q 445 833 463 821 q 402 856 428 846 q 343 867 376 867 q 234 838 283 867 q 149 759 185 808 q 94 647 114 710 q 75 515 75 583 q 92 384 75 447 q 143 272 110 321 q 224 194 176 224 q 331 164 271 164 q 433 192 389 164 q 508 269 478 221 q 555 378 539 317 q 572 506 571 439 l 365 506 q 289 500 317 506 q 258 494 261 494 l 258 525 l 635 525 z "},"H":{"ha":583,"x_min":14,"x_max":569,"o":"m 483 506 l 100 506 l 100 201 q 117 163 104 172 q 129 156 122 157 l 129 147 l 14 147 l 14 156 q 26 163 21 157 q 43 201 39 172 l 43 831 q 37 855 42 846 q 26 869 32 864 q 17 875 21 874 q 14 876 14 876 l 14 883 l 129 883 l 129 876 q 126 875 129 876 q 117 869 122 874 q 107 855 111 864 q 100 831 103 846 l 100 525 l 483 525 l 483 831 q 477 855 482 846 q 467 869 472 864 q 458 875 461 874 q 454 876 454 876 l 454 883 l 569 883 l 569 876 q 566 875 569 876 q 557 869 563 874 q 547 855 551 864 q 540 831 543 846 l 540 201 q 557 163 544 172 q 569 156 563 157 l 569 147 l 454 147 l 454 156 q 467 163 461 157 q 483 201 479 172 l 483 506 z "},"I":{"ha":144,"x_min":14,"x_max":131,"o":"m 131 876 q 126 874 131 876 q 115 866 121 872 q 105 846 110 860 q 100 808 100 832 l 100 222 q 105 185 100 199 q 115 166 110 172 q 126 158 121 160 q 131 156 131 156 l 131 147 l 14 147 l 14 156 q 19 158 14 156 q 29 166 24 160 q 40 185 35 172 q 44 222 44 199 l 44 808 q 40 846 44 832 q 29 866 35 860 q 19 874 24 872 q 14 876 14 876 l 14 883 l 131 883 l 131 876 z "},"J":{"ha":428,"x_min":14,"x_max":414,"o":"m 167 147 q 93 157 129 147 q 25 185 57 167 l 14 239 l 22 239 q 37 222 26 235 q 65 197 47 210 q 108 174 82 185 q 167 164 133 164 q 247 182 215 164 q 296 227 278 200 q 321 285 314 254 q 328 342 328 315 l 328 808 q 323 846 328 832 q 313 866 318 860 q 302 874 307 872 q 297 876 297 876 l 297 883 l 414 883 l 414 876 q 409 874 414 876 q 399 866 404 872 q 388 846 393 860 q 383 808 383 832 l 383 346 q 376 292 383 325 q 347 226 369 258 q 281 171 324 194 q 167 147 238 147 z "},"K":{"ha":490,"x_min":14,"x_max":476,"o":"m 14 147 l 14 156 q 19 158 14 156 q 29 166 24 160 q 40 185 35 172 q 44 222 44 199 l 44 808 q 40 846 44 832 q 29 866 35 860 q 19 874 24 872 q 14 876 14 876 l 14 883 l 131 883 l 131 876 q 126 874 131 876 q 115 866 121 872 q 105 846 110 860 q 100 808 100 832 l 100 515 l 389 868 q 385 875 389 875 q 381 876 383 876 l 381 883 l 429 883 l 128 515 l 114 515 q 180 490 153 515 q 228 424 207 464 q 269 340 249 385 q 315 255 289 294 q 377 190 342 215 q 465 164 413 164 l 476 164 l 476 147 l 465 147 q 352 173 399 147 q 274 238 306 199 q 221 322 242 276 q 184 407 200 368 q 152 472 168 446 q 114 497 136 497 l 100 497 l 100 222 q 105 185 100 199 q 115 166 110 172 q 126 158 121 160 q 131 156 131 156 l 131 147 l 14 147 z "},"L":{"ha":444,"x_min":14,"x_max":431,"o":"m 431 236 l 404 147 l 14 147 l 14 156 q 19 158 14 156 q 29 166 24 160 q 40 185 35 172 q 44 222 44 199 l 44 808 q 40 846 44 832 q 29 866 35 860 q 19 874 24 872 q 14 876 14 876 l 14 883 l 131 883 l 131 876 q 126 874 131 876 q 115 866 121 872 q 105 846 110 860 q 100 808 100 832 l 100 192 q 108 173 100 179 q 126 167 115 167 l 336 167 q 381 189 365 167 q 413 236 397 211 l 431 236 z "},"M":{"ha":656,"x_min":14,"x_max":642,"o":"m 642 876 q 637 874 642 876 q 627 866 632 872 q 617 846 622 860 q 613 808 613 832 l 613 222 q 617 185 613 199 q 627 166 622 172 q 637 158 632 160 q 642 156 642 156 l 642 147 l 526 147 l 526 156 q 531 158 526 156 q 542 166 536 160 q 552 185 547 172 q 557 222 557 199 l 557 797 l 326 147 l 296 147 l 75 758 l 75 222 q 80 185 75 199 q 90 166 85 172 q 101 158 96 160 q 106 156 106 156 l 106 147 l 14 147 l 14 156 q 19 158 14 156 q 29 166 24 160 q 40 185 35 172 q 44 222 44 199 l 44 808 q 40 846 44 832 q 29 866 35 860 q 19 874 24 872 q 14 876 14 876 l 14 883 l 85 883 l 322 225 l 557 883 l 642 883 l 642 876 z "},"N":{"ha":626,"x_min":14,"x_max":613,"o":"m 14 147 l 14 156 q 19 158 14 156 q 29 166 24 160 q 40 185 35 172 q 44 222 44 199 l 44 808 q 40 846 44 832 q 29 866 35 860 q 19 874 24 872 q 14 876 14 876 l 14 883 l 121 883 l 551 210 l 551 808 q 547 846 551 832 q 536 866 542 860 q 526 874 531 872 q 521 876 521 876 l 521 883 l 613 883 l 613 876 q 608 874 613 876 q 597 866 603 872 q 587 846 592 860 q 582 808 582 832 l 582 222 q 587 185 582 199 q 597 166 592 172 q 608 158 603 160 q 613 156 613 156 l 613 147 l 519 147 l 75 843 l 75 222 q 80 185 75 199 q 90 166 85 172 q 101 158 96 160 q 106 156 106 156 l 106 147 l 14 147 z "},"O":{"ha":686,"x_min":14,"x_max":672,"o":"m 343 147 q 217 176 276 147 q 112 256 157 206 q 40 372 67 306 q 14 515 14 439 q 40 658 14 592 q 112 775 67 725 q 217 854 157 825 q 343 883 276 883 q 469 854 410 883 q 574 775 529 825 q 646 658 619 725 q 672 515 672 592 q 646 372 672 439 q 574 256 619 306 q 469 176 529 206 q 343 147 410 147 m 343 867 q 234 838 283 867 q 149 759 185 808 q 94 647 114 710 q 75 515 75 583 q 94 384 75 447 q 149 272 114 321 q 234 194 185 224 q 343 164 283 164 q 451 194 403 164 q 535 272 500 224 q 590 384 571 321 q 610 515 610 447 q 590 647 610 583 q 535 759 571 710 q 451 838 500 808 q 343 867 403 867 z "},"P":{"ha":517,"x_min":14,"x_max":503,"o":"m 14 147 l 14 156 q 19 158 14 156 q 29 166 24 160 q 40 185 35 172 q 44 222 44 199 l 44 808 q 40 846 44 832 q 29 866 35 860 q 19 874 24 872 q 14 876 14 876 l 14 883 l 169 883 q 416 817 329 883 q 503 607 503 750 q 416 399 503 465 q 169 332 329 332 l 100 332 l 100 201 q 117 163 104 172 q 129 156 122 157 l 129 147 l 14 147 m 100 372 q 106 356 100 363 q 121 350 113 350 l 169 350 q 252 355 204 350 q 344 385 300 360 q 418 462 388 410 q 449 607 449 514 l 449 608 q 418 753 449 701 q 344 829 388 804 q 252 859 300 854 q 169 864 204 864 l 121 864 q 106 858 113 864 q 100 843 100 851 l 100 372 z "},"Q":{"ha":686,"x_min":14,"x_max":672,"o":"m 672 515 q 651 385 672 447 q 591 275 629 324 q 502 194 553 226 q 393 151 451 163 l 469 79 l 451 57 l 374 149 l 367 149 l 350 147 q 213 178 275 147 q 107 260 151 208 q 38 378 63 311 q 14 515 14 444 q 40 658 14 592 q 112 775 67 725 q 217 854 157 825 q 343 883 276 883 q 469 854 410 883 q 574 775 529 825 q 646 658 619 725 q 672 515 672 592 m 378 167 q 473 208 431 175 q 546 288 515 240 q 593 394 576 335 q 610 515 610 453 q 590 647 610 583 q 535 759 571 710 q 451 838 500 808 q 343 867 403 867 q 234 838 283 867 q 149 759 185 808 q 94 647 114 710 q 75 515 75 583 q 94 384 75 447 q 149 272 114 321 q 234 194 185 224 q 343 164 283 164 q 360 165 354 164 l 297 239 l 300 242 l 378 167 z "},"R":{"ha":517,"x_min":14,"x_max":503,"o":"m 14 147 l 14 156 q 19 158 14 156 q 29 166 24 160 q 40 185 35 172 q 44 222 44 199 l 44 808 q 40 846 44 832 q 29 866 35 860 q 19 874 24 872 q 14 876 14 876 l 14 883 l 169 883 q 416 817 329 883 q 503 607 503 750 q 424 406 503 472 q 199 332 346 339 q 256 285 232 314 q 310 227 281 256 q 378 178 339 199 q 482 157 418 157 l 493 157 l 493 147 l 482 147 q 369 161 415 147 q 290 195 322 175 q 235 240 257 215 q 197 284 214 264 q 163 318 179 304 q 125 332 147 332 l 100 332 l 100 222 q 105 185 100 199 q 115 166 110 172 q 126 158 121 160 q 131 156 131 156 l 131 147 l 14 147 m 100 365 q 115 350 100 350 l 169 350 q 252 355 204 350 q 344 385 300 360 q 418 462 388 410 q 449 607 449 514 l 449 608 q 418 753 449 701 q 344 829 388 804 q 252 859 300 854 q 169 864 204 864 l 115 864 q 100 849 100 864 l 100 365 z "},"S":{"ha":443,"x_min":14,"x_max":429,"o":"m 429 332 q 410 259 429 293 q 359 200 392 225 q 284 161 326 175 q 196 147 242 147 q 115 157 150 147 q 40 185 79 167 l 28 239 l 35 239 q 56 222 42 235 q 92 197 71 210 q 139 174 113 183 q 196 164 165 164 q 276 178 240 164 q 338 217 313 193 q 378 271 364 240 q 392 332 392 301 q 375 378 392 356 q 334 420 358 400 q 281 458 310 440 q 226 488 251 475 q 185 508 201 500 q 167 515 168 515 q 90 563 124 535 q 38 620 63 586 q 14 699 14 654 q 33 772 14 739 q 84 831 51 806 q 159 869 117 856 q 247 883 201 883 q 328 874 293 883 q 403 846 364 864 l 415 792 l 408 792 q 387 808 401 796 q 351 834 372 821 q 305 857 331 847 q 247 867 279 867 q 167 852 203 867 q 105 814 131 838 q 65 760 79 790 q 51 699 51 731 q 68 653 51 675 q 109 610 85 631 q 163 573 133 590 q 217 543 192 556 q 258 523 242 531 q 276 515 275 515 q 353 468 319 496 q 406 410 382 444 q 429 332 429 376 z "},"T":{"ha":574,"x_min":14,"x_max":560,"o":"m 108 864 q 63 842 79 864 q 32 794 47 819 l 14 794 l 40 883 l 533 883 l 560 794 l 542 794 q 510 842 526 819 q 465 864 494 864 l 342 864 q 324 858 332 864 q 315 839 315 851 l 315 200 q 322 176 318 185 q 332 163 326 167 q 344 156 338 157 l 344 147 l 229 147 l 229 156 q 242 163 236 157 q 251 176 247 167 q 258 200 256 185 l 258 839 q 250 858 258 851 q 232 864 242 864 l 108 864 z "},"U":{"ha":542,"x_min":14,"x_max":528,"o":"m 436 876 l 436 883 l 528 883 l 528 876 q 523 874 528 876 q 513 866 518 872 q 502 846 507 860 q 497 808 497 832 l 497 346 q 488 292 497 325 q 456 226 479 258 q 390 171 432 194 q 281 147 347 147 q 164 171 210 147 q 92 226 118 194 q 55 292 65 258 q 44 346 44 325 l 44 808 q 40 846 44 832 q 29 866 35 860 q 19 874 24 872 q 14 876 14 876 l 14 883 l 131 883 l 131 876 q 126 874 131 876 q 115 866 121 872 q 105 846 110 860 q 100 808 100 832 l 100 342 q 110 285 100 315 q 141 230 119 256 q 197 188 163 204 q 281 171 231 171 q 365 188 329 171 q 423 230 400 204 q 456 285 446 256 q 467 342 467 315 l 467 808 q 462 846 467 832 q 451 866 457 860 q 441 874 446 872 q 436 876 436 876 z "},"V":{"ha":640,"x_min":14,"x_max":626,"o":"m 626 876 q 608 867 617 874 q 590 846 600 860 q 572 808 581 832 l 338 147 l 307 147 l 69 806 q 68 808 69 807 l 68 810 q 50 847 60 833 q 33 867 40 860 q 14 876 24 874 l 14 883 l 131 883 l 131 876 q 119 867 122 874 q 115 847 115 860 q 124 810 115 833 l 124 808 q 125 806 125 807 l 335 225 l 542 808 q 551 846 551 832 q 547 867 551 860 q 536 876 544 874 l 536 883 l 626 883 l 626 876 z "},"W":{"ha":901,"x_min":14,"x_max":888,"o":"m 568 147 l 451 468 l 338 147 l 307 147 l 69 806 q 68 808 69 807 l 68 810 q 50 847 60 833 q 33 866 40 860 q 19 874 25 872 q 14 876 14 876 l 14 883 l 131 883 l 131 876 q 126 874 131 876 q 119 866 122 872 q 115 847 115 860 q 124 810 115 833 l 124 808 q 125 806 125 807 l 335 225 l 436 511 l 331 806 q 329 808 329 807 l 329 810 q 311 847 321 833 q 293 866 301 860 q 280 874 285 872 q 275 876 275 876 l 275 883 l 390 883 l 390 876 q 386 874 390 876 q 378 866 382 872 q 375 847 375 860 q 383 810 375 833 l 385 808 l 385 806 l 596 225 l 803 808 q 811 846 811 832 q 808 867 811 860 q 796 876 804 874 l 796 883 l 888 883 l 888 876 q 882 874 888 876 q 868 866 876 872 q 851 846 860 860 q 833 808 842 832 l 599 147 l 568 147 z "},"X":{"ha":579,"x_min":14,"x_max":565,"o":"m 460 831 q 467 855 467 846 q 466 869 468 864 q 461 875 464 874 q 458 876 458 876 l 458 883 l 553 883 l 553 876 q 533 869 551 875 q 492 831 515 863 l 311 529 l 508 201 q 549 163 532 172 q 565 156 558 157 l 565 147 l 450 147 l 450 156 q 458 163 456 157 q 460 176 461 167 q 451 201 460 186 l 283 482 l 114 201 q 106 176 107 186 q 108 163 106 167 q 117 156 111 157 l 117 147 l 26 147 l 26 156 q 43 163 33 157 q 61 176 50 167 q 83 201 72 186 l 268 508 l 75 831 q 33 869 51 863 q 14 876 15 875 l 14 883 l 133 883 l 133 876 q 131 875 133 876 q 126 869 128 874 q 124 855 124 864 q 132 831 125 846 l 296 556 l 460 831 z "},"Y":{"ha":489,"x_min":14,"x_max":475,"o":"m 217 411 q 206 481 217 439 q 180 570 196 522 q 142 666 164 618 q 98 752 121 714 q 53 815 75 790 q 14 839 32 839 l 14 883 q 65 858 39 883 q 117 793 92 833 q 166 702 143 753 q 206 599 189 651 q 234 497 224 546 q 244 411 244 447 q 255 492 244 444 q 283 592 265 540 q 323 697 300 644 q 372 790 346 749 q 424 858 397 832 q 475 883 450 883 l 475 839 q 435 815 457 839 q 391 752 414 790 q 347 666 368 714 q 309 570 325 618 q 283 480 293 522 q 272 411 272 438 l 272 222 q 277 185 272 199 q 288 166 282 172 q 298 158 293 160 q 303 156 303 156 l 303 147 l 186 147 l 186 156 q 191 158 186 156 q 201 166 196 160 q 212 185 207 172 q 217 222 217 199 l 217 411 z "},"Z":{"ha":529,"x_min":14,"x_max":515,"o":"m 99 167 l 403 167 q 449 189 433 167 q 481 236 465 211 l 499 236 l 472 147 l 14 147 l 14 156 q 21 163 17 158 q 42 192 28 171 l 431 864 l 126 864 q 80 842 96 864 q 49 794 64 819 l 31 794 l 57 883 l 515 883 l 515 876 q 509 868 515 875 q 488 839 503 861 l 99 167 z "},"a":{"ha":482,"x_min":14,"x_max":468,"o":"m 438 222 q 442 185 438 199 q 453 166 447 172 q 463 158 458 160 q 468 156 468 156 l 468 147 l 353 147 l 353 156 q 358 158 353 156 q 367 166 363 160 q 377 185 372 172 q 382 222 382 199 l 382 240 q 322 174 361 200 q 225 147 283 147 q 135 164 175 147 q 69 210 96 181 q 28 278 42 239 q 14 360 14 317 q 27 442 14 404 q 67 509 40 481 q 133 554 93 538 q 225 571 172 571 q 320 545 281 571 q 382 476 360 519 l 382 540 q 375 590 382 564 q 353 636 368 615 q 313 671 338 657 q 251 685 288 685 q 205 673 225 685 q 169 646 185 661 q 140 606 153 628 l 110 650 q 151 675 129 664 q 197 692 171 685 q 251 700 222 700 q 349 684 313 700 q 406 644 386 668 q 431 592 425 621 q 438 540 438 564 l 438 222 m 382 368 q 369 440 381 406 q 336 502 357 475 q 287 545 315 529 q 225 561 258 561 q 163 544 190 561 q 116 499 135 528 q 88 435 97 471 q 78 360 78 399 q 88 284 78 321 q 116 219 97 247 q 163 174 135 192 q 225 157 190 157 q 287 173 258 157 q 336 216 315 189 q 369 278 357 243 q 382 351 381 314 l 382 368 z "},"b":{"ha":482,"x_min":14,"x_max":468,"o":"m 257 700 q 349 678 310 700 q 415 619 389 657 q 455 531 442 582 q 468 424 468 481 q 454 316 468 367 q 413 228 440 265 q 347 169 386 190 q 257 147 307 147 q 159 178 197 147 q 100 261 121 210 l 100 222 q 105 185 100 199 q 115 166 110 172 q 126 158 121 160 q 131 156 131 156 l 131 147 l 14 147 l 14 156 q 19 158 14 156 q 29 166 24 160 q 40 185 35 172 q 44 222 44 199 l 44 808 q 40 846 44 832 q 29 866 35 860 q 19 874 24 872 q 14 876 14 876 l 14 883 l 131 883 l 131 876 q 126 874 131 876 q 115 866 121 872 q 105 846 110 860 q 100 808 100 832 l 100 583 q 160 668 121 636 q 257 700 199 700 m 257 160 q 319 182 292 160 q 366 241 347 204 q 394 326 385 278 q 404 424 404 374 q 394 522 404 474 q 366 606 385 569 q 319 665 347 643 q 257 688 292 688 q 196 667 224 688 q 147 613 168 647 q 115 534 126 578 q 100 442 103 490 l 100 406 q 115 313 103 357 q 147 234 126 268 q 196 180 168 200 q 257 160 224 160 z "},"c":{"ha":438,"x_min":14,"x_max":424,"o":"m 265 681 q 184 659 219 681 q 124 602 149 638 q 87 520 100 567 q 74 424 74 474 q 87 327 74 374 q 124 245 100 281 q 184 188 149 210 q 265 167 219 167 q 338 183 306 167 q 394 228 369 200 l 424 210 q 350 164 390 181 q 265 147 310 147 q 169 169 214 147 q 89 228 124 190 q 34 316 54 265 q 14 424 14 367 q 34 531 14 481 q 89 619 54 582 q 169 678 124 657 q 265 700 214 700 q 350 683 310 700 q 424 638 390 667 l 394 619 q 338 664 369 647 q 265 681 306 681 z "},"d":{"ha":482,"x_min":14,"x_max":468,"o":"m 351 147 l 351 156 q 356 158 351 156 q 367 166 361 160 q 377 185 372 172 q 382 222 382 199 l 382 261 q 323 178 361 210 q 225 147 285 147 q 135 169 175 147 q 69 228 96 190 q 28 316 42 265 q 14 424 14 367 q 27 531 14 481 q 67 619 40 582 q 133 678 93 657 q 225 700 172 700 q 322 668 283 700 q 382 583 361 636 l 382 808 q 377 846 382 832 q 367 866 372 860 q 356 874 361 872 q 351 876 351 876 l 351 883 l 468 883 l 468 876 q 463 874 468 876 q 453 866 458 872 q 442 846 447 860 q 438 808 438 832 l 438 222 q 442 185 438 199 q 453 166 447 172 q 463 158 458 160 q 468 156 468 156 l 468 147 l 351 147 m 382 442 q 368 534 381 490 q 335 613 356 578 q 286 667 314 647 q 225 688 258 688 q 163 665 190 688 q 116 606 135 643 q 88 522 97 569 q 78 424 78 474 q 88 326 78 374 q 116 241 97 278 q 163 182 135 204 q 225 160 190 160 q 286 180 258 160 q 335 234 314 200 q 368 313 356 268 q 382 406 381 357 l 382 442 z "},"e":{"ha":472,"x_min":14,"x_max":458,"o":"m 458 249 q 374 174 424 201 q 265 147 324 147 q 169 169 214 147 q 89 228 124 190 q 34 316 54 265 q 14 424 14 367 q 77 627 14 554 q 243 700 140 700 q 365 665 322 700 q 428 589 408 631 q 454 478 451 540 l 404 467 l 75 385 q 94 301 79 340 q 134 231 110 261 q 192 184 158 201 q 265 167 225 167 q 358 195 318 167 q 424 271 399 224 l 458 249 m 74 403 l 397 483 q 386 560 396 524 q 358 623 376 596 q 310 665 339 650 q 243 681 282 681 q 156 653 189 681 q 104 583 122 625 q 80 493 86 542 q 74 403 74 444 z "},"f":{"ha":278,"x_min":0,"x_max":332,"o":"m 231 882 q 272 874 254 882 q 304 854 290 865 q 332 826 319 842 l 294 775 l 286 775 q 285 790 286 776 q 278 821 283 804 q 260 851 272 838 q 228 864 249 864 q 189 847 210 864 q 168 786 168 829 l 168 311 l 176 311 q 252 317 225 311 q 282 324 279 324 l 282 281 q 252 287 279 281 q 176 293 225 293 l 168 293 l 168 221 q 173 184 168 197 q 183 165 178 171 q 192 156 188 158 q 197 154 197 154 l 197 147 l 82 147 l 82 154 q 87 156 82 154 q 97 165 92 158 q 108 184 103 171 q 113 221 113 197 l 113 293 l 104 293 q 29 287 56 293 q 0 281 3 281 l 0 324 q 29 317 3 324 q 104 311 56 311 l 113 311 l 113 788 q 116 810 113 794 q 132 841 119 825 q 168 869 144 857 q 231 882 192 882 z "},"g":{"ha":482,"x_min":14,"x_max":468,"o":"m 64 89 l 72 89 q 72 60 72 88 q 85 -1 72 32 q 133 -60 99 -33 q 238 -87 168 -87 q 327 -65 297 -87 q 369 -12 357 -43 q 381 53 381 19 q 381 107 381 86 l 381 258 q 322 178 360 210 q 225 147 283 147 q 135 169 175 147 q 69 228 96 190 q 28 316 42 265 q 14 424 14 367 q 27 531 14 481 q 67 619 40 582 q 133 678 93 657 q 225 700 172 700 q 322 669 283 700 q 381 586 360 638 l 381 646 q 374 672 379 663 q 364 685 369 681 q 355 690 358 689 q 351 692 351 692 l 351 700 l 468 700 l 468 692 q 463 690 468 692 q 453 681 458 688 q 442 662 447 675 q 438 625 438 649 l 438 147 l 436 147 l 436 106 q 436 84 436 101 q 433 43 436 67 q 418 -7 429 19 q 385 -55 407 -33 q 328 -91 364 -76 q 238 -106 292 -106 q 125 -83 167 -106 q 61 -35 83 -61 q 26 38 36 -3 l 64 89 m 381 460 q 364 547 376 506 q 331 619 351 588 q 284 669 311 650 q 225 688 257 688 q 163 665 190 688 q 116 606 135 643 q 88 522 97 569 q 78 424 78 474 q 88 326 78 374 q 116 241 97 278 q 163 182 135 204 q 225 160 190 160 q 284 178 257 160 q 331 228 311 197 q 364 301 351 260 q 381 388 376 342 l 381 460 z "},"h":{"ha":456,"x_min":14,"x_max":442,"o":"m 411 222 q 416 185 411 199 q 426 165 421 171 q 437 156 432 158 q 442 154 442 154 l 442 147 l 326 147 l 326 154 q 331 156 326 154 q 342 165 336 158 q 352 185 347 171 q 357 222 357 199 l 357 531 q 353 575 357 550 q 336 624 349 600 q 301 663 324 647 q 242 679 278 679 q 179 663 206 679 q 135 626 153 646 q 100 574 114 603 l 100 222 q 105 185 100 199 q 115 165 110 171 q 126 156 121 158 q 131 154 131 154 l 131 147 l 14 147 l 14 154 q 19 156 14 154 q 29 165 24 158 q 40 185 35 171 q 44 222 44 199 l 44 808 q 40 845 44 832 q 29 865 35 858 q 19 873 24 871 q 14 875 14 875 l 14 883 l 131 883 l 131 875 q 126 873 131 875 q 115 865 121 871 q 105 845 110 858 q 100 808 100 832 l 100 610 q 117 635 106 619 q 147 665 129 650 q 189 690 165 679 q 243 700 213 700 q 322 683 290 700 q 374 639 354 665 q 403 583 394 613 q 411 531 411 554 l 411 222 z "},"i":{"ha":144,"x_min":14,"x_max":131,"o":"m 72 719 q 42 737 54 719 q 29 778 29 754 q 42 820 29 803 q 72 838 54 838 q 102 820 90 838 q 114 778 114 803 q 102 737 114 754 q 72 719 90 719 m 131 692 q 126 690 131 692 q 115 681 121 688 q 105 662 110 675 q 100 625 100 649 l 100 222 q 105 185 100 199 q 115 165 110 171 q 126 156 121 158 q 131 154 131 154 l 131 147 l 14 147 l 14 154 q 19 156 14 154 q 29 165 24 158 q 40 185 35 171 q 44 222 44 199 l 44 625 q 40 662 44 649 q 29 681 35 675 q 19 690 24 688 q 14 692 14 692 l 14 700 l 131 700 l 131 692 z "},"j":{"ha":167,"x_min":-97,"x_max":153,"o":"m 53 778 q 65 820 53 803 q 94 838 76 838 q 125 820 113 838 q 138 778 138 803 q 125 737 138 754 q 94 719 113 719 q 65 737 76 719 q 53 778 53 754 m -61 118 l -53 118 q -51 103 -53 117 q -44 72 -50 89 q -26 42 -37 56 q 6 29 -15 29 q 46 47 25 29 q 67 107 67 64 l 67 625 q 62 662 67 649 q 51 681 57 675 q 41 690 46 688 q 36 692 36 692 l 36 700 l 153 700 l 153 692 q 148 690 153 692 q 138 681 143 688 q 127 662 132 675 q 122 625 122 649 l 122 106 q 119 83 122 99 q 103 52 115 68 q 67 24 90 36 q 4 11 43 11 q -38 19 -19 11 q -69 39 -57 28 q -97 67 -85 51 l -61 118 z "},"k":{"ha":443,"x_min":14,"x_max":429,"o":"m 108 519 q 172 493 149 519 q 213 427 196 467 q 244 342 229 388 q 280 256 258 296 q 333 190 301 217 q 418 164 365 164 l 429 164 l 429 147 l 418 147 q 308 174 351 147 q 238 239 265 200 q 196 324 211 278 q 169 408 181 369 q 144 474 157 447 q 108 500 131 500 l 100 500 l 100 222 q 105 185 100 199 q 115 166 110 172 q 126 158 121 160 q 131 156 131 156 l 131 147 l 14 147 l 14 156 q 19 158 14 156 q 29 166 24 160 q 40 185 35 172 q 44 222 44 199 l 44 808 q 40 846 44 832 q 29 866 35 860 q 19 874 24 872 q 14 876 14 876 l 14 883 l 131 883 l 131 876 q 126 874 131 876 q 115 866 121 872 q 105 846 110 860 q 100 808 100 832 l 100 528 l 321 700 l 356 700 l 124 519 l 108 519 z "},"l":{"ha":157,"x_min":14,"x_max":143,"o":"m 100 222 q 100 210 100 218 q 101 195 100 203 q 106 182 103 188 q 118 176 110 176 q 134 181 126 176 q 143 185 142 185 l 143 172 q 131 160 138 165 q 115 151 124 156 q 96 147 107 147 q 58 160 72 147 q 44 222 44 174 l 44 808 q 40 845 44 832 q 29 865 35 858 q 19 873 24 871 q 14 875 14 875 l 14 883 l 131 883 l 131 875 q 126 873 131 875 q 115 865 121 871 q 105 845 110 858 q 100 808 100 832 l 100 222 z "},"m":{"ha":814,"x_min":14,"x_max":800,"o":"m 769 222 q 774 185 769 199 q 785 165 779 171 q 795 156 790 158 q 800 154 800 154 l 800 147 l 683 147 l 683 154 q 688 156 683 154 q 699 165 693 158 q 709 185 704 171 q 714 222 714 199 l 714 531 q 709 575 714 550 q 690 624 704 600 q 653 663 676 647 q 593 679 629 679 q 528 658 558 679 q 476 608 499 636 q 431 538 451 578 l 431 222 q 435 185 431 199 q 446 165 440 171 q 456 156 451 158 q 461 154 461 154 l 461 147 l 344 147 l 344 154 q 349 156 344 154 q 360 165 354 158 q 370 185 365 171 q 375 222 375 199 l 375 531 q 370 575 375 550 q 351 624 365 600 q 314 663 338 647 q 254 679 290 679 q 189 663 218 679 q 140 626 160 646 q 100 574 118 603 l 100 222 q 105 185 100 199 q 115 165 110 171 q 126 156 121 158 q 131 154 131 154 l 131 147 l 14 147 l 14 154 q 19 156 14 154 q 29 165 24 158 q 40 185 35 171 q 44 222 44 199 l 44 625 q 40 662 44 649 q 29 681 35 675 q 19 690 24 688 q 14 692 14 692 l 14 700 l 131 700 l 131 692 q 126 690 131 692 q 115 681 121 688 q 105 662 110 675 q 100 625 100 649 l 100 613 q 119 635 107 621 q 151 665 132 650 q 197 690 171 679 q 256 700 224 700 q 322 688 293 700 q 372 658 351 676 q 406 615 393 639 q 425 569 419 592 q 440 594 428 574 q 474 639 451 615 q 526 681 496 663 q 596 700 557 700 q 675 683 642 700 q 729 639 708 665 q 760 583 750 613 q 769 531 769 554 l 769 222 z "},"n":{"ha":475,"x_min":14,"x_max":461,"o":"m 431 222 q 435 185 431 199 q 446 165 440 171 q 456 156 451 158 q 461 154 461 154 l 461 147 l 344 147 l 344 154 q 349 156 344 154 q 360 165 354 158 q 370 185 365 171 q 375 222 375 199 l 375 531 q 370 575 375 550 q 351 624 365 600 q 314 663 338 647 q 254 679 290 679 q 189 663 218 679 q 140 626 160 646 q 100 574 118 603 l 100 222 q 105 185 100 199 q 115 165 110 171 q 126 156 121 158 q 131 154 131 154 l 131 147 l 14 147 l 14 154 q 19 156 14 154 q 29 165 24 158 q 40 185 35 171 q 44 222 44 199 l 44 625 q 40 662 44 649 q 29 681 35 675 q 19 690 24 688 q 14 692 14 692 l 14 700 l 131 700 l 131 692 q 126 690 131 692 q 115 681 121 688 q 105 662 110 675 q 100 625 100 649 l 100 613 q 119 635 107 621 q 151 665 132 650 q 197 690 171 679 q 256 700 224 700 q 336 683 303 700 q 390 639 369 665 q 421 583 411 613 q 431 531 431 554 l 431 222 z "},"o":{"ha":531,"x_min":14,"x_max":517,"o":"m 265 700 q 363 678 317 700 q 442 619 408 657 q 497 531 476 582 q 517 424 517 481 q 497 316 517 367 q 442 228 476 265 q 363 169 408 190 q 265 147 317 147 q 169 169 214 147 q 89 228 124 190 q 34 316 54 265 q 14 424 14 367 q 34 531 14 481 q 89 619 54 582 q 169 678 124 657 q 265 700 214 700 m 265 167 q 347 188 311 167 q 406 245 382 210 q 444 327 431 281 q 457 424 457 374 q 444 520 457 474 q 406 602 431 567 q 347 659 382 638 q 265 681 311 681 q 184 659 219 681 q 124 602 149 638 q 87 520 100 567 q 74 424 74 474 q 87 327 74 374 q 124 245 100 281 q 184 188 149 210 q 265 167 219 167 z "},"p":{"ha":482,"x_min":14,"x_max":468,"o":"m 257 700 q 349 678 310 700 q 415 619 389 657 q 455 531 442 582 q 468 424 468 481 q 454 316 468 367 q 413 228 440 265 q 347 169 386 190 q 257 147 307 147 q 159 178 197 147 q 100 261 121 210 l 100 39 q 105 1 100 15 q 115 -19 110 -12 q 126 -27 121 -25 q 131 -29 131 -29 l 131 -36 l 14 -36 l 14 -29 q 19 -27 14 -29 q 29 -19 24 -25 q 40 1 35 -12 q 44 39 44 15 l 44 625 q 40 662 44 649 q 29 681 35 675 q 19 690 24 688 q 14 692 14 692 l 14 700 l 131 700 l 131 692 q 126 690 131 692 q 115 681 121 688 q 105 662 110 675 q 100 625 100 649 l 100 583 q 160 668 121 636 q 257 700 199 700 m 257 160 q 319 182 292 160 q 366 241 347 204 q 394 326 385 278 q 404 424 404 374 q 394 522 404 474 q 366 606 385 569 q 319 665 347 643 q 257 688 292 688 q 196 667 224 688 q 147 613 168 647 q 115 534 126 578 q 100 442 103 490 l 100 406 q 115 313 103 357 q 147 234 126 268 q 196 180 168 200 q 257 160 224 160 z "},"q":{"ha":482,"x_min":14,"x_max":468,"o":"m 351 -36 l 351 -29 q 356 -27 351 -29 q 367 -19 361 -25 q 377 1 372 -12 q 382 39 382 15 l 382 261 q 323 178 361 210 q 225 147 285 147 q 135 169 175 147 q 69 228 96 190 q 28 316 42 265 q 14 424 14 367 q 27 531 14 481 q 67 619 40 582 q 133 678 93 657 q 225 700 172 700 q 322 668 283 700 q 382 583 361 636 l 382 625 q 377 662 382 649 q 367 681 372 675 q 356 690 361 688 q 351 692 351 692 l 351 700 l 468 700 l 468 692 q 463 690 468 692 q 453 681 458 688 q 442 662 447 675 q 438 625 438 649 l 438 39 q 442 1 438 15 q 453 -19 447 -12 q 463 -27 458 -25 q 468 -29 468 -29 l 468 -36 l 351 -36 m 382 442 q 368 534 381 490 q 335 613 356 578 q 286 667 314 647 q 225 688 258 688 q 163 665 190 688 q 116 606 135 643 q 88 522 97 569 q 78 424 78 474 q 88 326 78 374 q 116 241 97 278 q 163 182 135 204 q 225 160 190 160 q 286 180 258 160 q 335 235 314 200 q 368 314 356 269 q 382 406 381 358 l 382 442 z "},"r":{"ha":351,"x_min":14,"x_max":338,"o":"m 100 563 q 122 601 107 578 q 161 646 136 624 q 222 684 186 668 q 306 700 258 700 l 338 643 l 324 643 q 310 651 317 647 q 293 656 303 654 q 271 658 283 658 q 202 643 233 658 q 148 607 171 628 q 113 565 125 586 q 100 531 100 543 l 100 201 q 105 176 100 185 q 115 163 110 167 q 126 157 121 158 q 131 156 131 156 l 131 147 l 14 147 l 14 156 q 19 158 14 156 q 29 166 24 160 q 40 185 35 172 q 44 222 44 199 l 44 625 q 40 662 44 649 q 29 681 35 675 q 19 690 24 688 q 14 692 14 692 l 14 700 l 131 700 l 131 692 q 126 690 131 692 q 115 679 121 688 q 105 654 110 671 q 100 606 100 638 l 100 563 z "},"s":{"ha":390,"x_min":14,"x_max":376,"o":"m 65 578 q 88 535 65 557 q 146 490 111 514 q 221 442 181 467 q 296 392 261 417 q 353 340 331 367 q 376 286 376 314 q 323 187 376 226 q 172 147 269 147 q 101 154 132 147 q 38 175 71 161 l 26 217 l 32 217 q 51 203 39 213 q 81 185 64 194 q 122 167 99 175 q 172 160 146 160 q 287 191 250 160 q 324 269 324 222 q 301 306 324 288 q 243 346 278 325 q 169 390 208 367 q 94 440 129 413 q 37 497 60 467 q 14 561 14 526 q 31 616 14 590 q 75 660 47 642 q 140 690 103 679 q 218 700 176 700 q 288 693 257 700 q 353 672 318 686 l 364 631 l 357 631 q 339 644 351 635 q 308 663 326 653 q 268 680 290 672 q 218 688 246 688 q 103 656 140 688 q 65 578 65 625 z "},"t":{"ha":244,"x_min":14,"x_max":231,"o":"m 119 222 q 119 210 119 218 q 121 195 119 203 q 126 182 122 188 q 138 176 129 176 q 154 181 147 176 q 163 185 161 185 l 163 172 q 150 160 157 165 q 135 151 143 156 q 115 147 126 147 q 78 160 92 147 q 64 222 64 174 l 64 681 l 14 681 l 14 700 l 64 700 l 64 808 q 59 846 64 832 q 49 866 54 860 q 38 874 43 872 q 33 876 33 876 l 33 883 l 150 883 l 150 876 q 145 874 150 876 q 135 866 140 872 q 124 846 129 860 q 119 808 119 832 l 119 700 l 231 700 l 231 669 q 200 675 228 669 q 124 681 172 681 l 119 681 l 119 222 z "},"u":{"ha":456,"x_min":14,"x_max":442,"o":"m 326 147 l 326 156 q 331 158 326 156 q 342 166 336 160 q 352 185 347 172 q 357 222 357 199 l 357 238 q 339 213 351 228 q 308 183 326 197 q 267 158 290 168 q 213 147 243 147 q 134 165 167 147 q 82 208 101 182 q 53 264 63 235 q 44 317 44 293 l 44 625 q 40 662 44 649 q 29 681 35 675 q 19 690 24 688 q 14 692 14 692 l 14 700 l 131 700 l 131 692 q 126 690 131 692 q 115 681 121 688 q 105 662 110 675 q 100 625 100 649 l 100 317 q 104 273 100 299 q 121 224 108 247 q 156 184 133 200 q 214 168 178 168 q 277 185 250 168 q 322 221 304 201 q 357 274 343 244 l 357 625 q 352 662 357 649 q 342 681 347 675 q 331 690 336 688 q 326 692 326 692 l 326 700 l 442 700 l 442 692 q 437 690 442 692 q 426 681 432 688 q 416 662 421 675 q 411 625 411 649 l 411 222 q 416 185 411 199 q 426 166 421 172 q 437 158 432 160 q 442 156 442 156 l 442 147 l 326 147 z "},"v":{"ha":572,"x_min":14,"x_max":558,"o":"m 558 700 l 558 692 q 553 690 558 692 q 539 681 547 688 q 520 662 531 675 q 500 625 510 649 l 300 147 l 269 147 l 72 625 q 52 662 63 649 q 33 681 42 675 q 19 690 25 688 q 14 692 14 692 l 14 700 l 131 700 l 131 692 q 119 682 122 690 q 117 662 117 675 q 128 625 118 649 l 297 214 l 469 625 q 481 662 481 649 q 479 682 482 675 q 468 692 476 690 l 468 700 l 558 700 z "},"w":{"ha":774,"x_min":14,"x_max":760,"o":"m 760 700 l 760 692 q 754 690 760 692 q 740 681 749 688 q 722 662 732 675 q 701 625 711 649 l 500 147 l 469 147 l 386 351 l 300 147 l 269 147 l 72 625 q 52 662 63 649 q 33 681 42 675 q 19 690 25 688 q 14 692 14 692 l 14 700 l 131 700 l 131 692 q 119 682 122 690 q 117 662 117 675 q 128 625 118 649 l 297 214 l 371 388 l 272 625 q 253 662 263 649 q 235 681 243 675 q 221 690 226 688 q 215 692 215 692 l 215 700 l 331 700 l 331 692 q 319 682 322 690 q 317 662 317 675 q 328 625 318 649 l 399 454 l 469 625 q 481 662 481 649 q 479 682 482 675 q 468 692 476 690 l 468 700 l 558 700 l 558 692 q 553 690 558 692 q 539 681 547 688 q 520 662 531 675 q 500 625 510 649 l 414 418 l 497 214 l 671 625 q 683 662 682 649 q 681 682 683 675 q 669 692 676 690 l 668 700 l 760 700 z "},"x":{"ha":531,"x_min":14,"x_max":517,"o":"m 438 222 q 469 185 456 199 q 494 164 483 171 q 517 154 507 157 l 517 147 l 400 147 l 400 154 q 408 164 407 157 q 405 185 410 171 q 382 222 400 199 l 260 393 l 136 222 q 114 185 119 199 q 110 164 108 171 q 118 154 111 157 l 117 147 l 25 147 l 28 154 q 33 156 28 154 q 49 165 39 158 q 74 185 60 171 q 106 222 89 199 l 244 414 l 93 625 q 62 662 76 649 q 36 682 47 675 q 14 692 24 690 l 14 700 l 131 700 l 131 692 q 122 682 124 690 q 126 662 121 675 q 147 625 131 649 l 272 453 l 396 625 q 417 662 413 649 q 421 682 422 675 q 413 692 419 690 l 413 700 l 504 700 l 504 692 q 498 690 504 692 q 481 681 492 688 q 456 662 471 675 q 425 625 442 649 l 286 432 l 438 222 z "},"y":{"ha":572,"x_min":14,"x_max":558,"o":"m 558 692 q 553 690 558 692 q 539 681 547 688 q 520 662 531 675 q 500 625 510 649 l 300 147 l 257 65 q 225 10 242 33 q 193 -28 208 -12 q 160 -58 176 -46 l 118 1 l 121 4 q 158 13 140 4 q 190 33 175 21 q 217 60 204 46 q 238 89 229 75 l 269 147 l 72 625 q 52 662 63 649 q 33 681 42 675 q 19 690 25 688 q 14 692 14 692 l 14 700 l 131 700 l 131 692 q 119 682 122 690 q 117 662 117 675 q 128 625 118 649 l 297 214 l 469 625 q 481 662 481 649 q 479 682 482 675 q 468 692 476 690 l 468 700 l 558 700 l 558 692 z "},"z":{"ha":493,"x_min":14,"x_max":479,"o":"m 479 699 l 479 692 q 473 684 479 690 q 451 656 467 678 l 99 167 l 340 167 q 387 189 371 167 q 418 236 403 211 l 436 236 l 410 147 l 14 147 l 14 154 q 20 163 14 156 q 42 192 26 169 l 394 681 l 153 681 q 126 674 138 681 q 106 658 115 668 q 90 635 97 647 q 75 611 82 624 l 57 611 l 83 699 l 479 699 z "},"":{"ha":576,"x_min":14,"x_max":563,"o":"m 343 164 q 402 174 376 164 q 445 197 428 183 q 473 222 463 210 q 488 238 483 233 l 496 238 l 485 183 q 343 147 419 147 q 217 176 276 147 q 112 254 157 204 q 40 371 67 304 q 14 514 14 438 q 40 658 14 590 q 112 775 67 725 q 217 853 157 825 q 343 882 276 882 q 485 846 419 882 l 496 790 l 488 790 q 473 807 483 794 q 445 833 463 819 q 402 856 428 846 q 343 865 376 865 q 233 836 283 865 q 147 758 183 807 q 90 645 111 708 q 69 514 69 582 q 90 384 69 447 q 147 272 111 321 q 233 193 183 222 q 343 164 283 164 m 357 735 q 435 717 397 735 q 501 669 472 700 q 546 599 529 639 q 563 513 563 558 q 546 426 563 467 q 501 354 529 385 q 435 306 472 324 q 357 289 397 289 q 279 306 317 289 q 213 354 242 324 q 168 426 185 385 q 151 513 151 467 q 168 599 151 558 q 213 669 185 639 q 279 717 242 700 q 357 735 317 735 m 357 306 q 423 322 393 306 q 474 367 453 339 q 506 433 494 396 q 518 513 518 471 q 506 590 518 553 q 474 656 494 628 q 423 701 453 685 q 357 718 393 718 q 291 701 321 718 q 240 656 261 685 q 206 590 218 628 q 194 513 194 553 q 206 433 194 471 q 240 367 218 396 q 291 322 261 339 q 357 306 321 306 z "},"":{"ha":1038,"x_min":14,"x_max":1024,"o":"m 928 165 q 975 188 958 165 q 1006 235 992 211 l 1024 235 l 997 147 l 607 147 l 607 154 l 615 158 q 630 176 622 163 q 638 221 638 189 l 638 492 l 583 492 q 547 339 579 404 q 459 231 514 274 q 330 168 404 189 q 169 147 256 147 l 14 147 l 14 154 q 19 156 14 154 q 29 165 24 158 q 40 184 35 171 q 44 221 44 197 l 44 808 q 40 845 44 832 q 29 865 35 858 q 19 873 24 871 q 14 875 14 875 l 14 882 l 169 882 q 334 860 258 882 q 465 792 410 838 q 552 678 521 747 q 583 514 583 608 l 583 511 l 638 511 l 638 808 q 630 853 638 840 q 615 871 622 867 l 607 875 l 607 882 l 997 882 l 1024 794 l 1006 794 q 975 841 992 818 q 928 864 958 864 l 718 864 q 700 858 708 864 q 692 838 692 851 l 692 511 l 774 511 q 849 517 822 511 q 881 522 876 522 l 881 481 q 849 486 876 481 q 774 492 822 492 l 692 492 l 692 192 q 700 172 692 178 q 718 165 708 165 l 928 165 m 524 515 q 504 656 524 599 q 454 753 485 714 q 385 814 424 792 q 306 847 346 836 q 231 861 267 858 q 169 864 194 864 l 100 864 l 100 165 l 169 165 q 230 168 194 165 q 303 181 265 171 q 380 212 342 192 q 449 269 418 232 q 501 360 481 306 q 524 492 521 414 l 351 492 q 276 486 303 492 q 246 481 249 481 l 246 522 q 276 517 249 522 q 351 511 303 511 l 524 511 l 524 515 z "},"":{"ha":639,"x_min":0,"x_max":611,"o":"m 611 147 l 496 147 l 496 154 q 499 156 496 154 q 506 165 503 158 q 510 184 510 171 q 501 221 510 197 l 501 222 l 296 792 q 292 794 294 794 q 286 792 289 794 l 85 221 q 76 184 76 197 q 80 165 76 171 q 88 156 83 158 q 92 154 92 154 l 92 147 l 0 147 l 0 154 q 6 156 0 154 q 19 165 11 158 q 36 184 26 171 q 54 221 46 197 l 276 846 l 263 882 l 319 882 l 318 881 l 557 221 q 575 184 565 197 q 592 165 585 171 q 606 156 600 158 q 611 154 611 154 l 611 147 m 332 376 q 332 363 343 368 q 312 340 319 354 q 300 310 304 325 q 292 303 297 303 q 285 310 288 303 q 273 340 281 325 q 253 363 265 354 q 253 376 242 368 q 273 399 265 383 q 285 429 281 414 q 292 435 288 435 q 300 429 297 435 q 312 399 304 414 q 332 376 319 383 z "},".":{"ha":372,"x_min":0,"x_max":0,"o":""}}}
